<svg width="14" height="14" viewBox="0 0 14 14" fill="none" xmlns="http://www.w3.org/2000/svg">
    <path fill-rule="evenodd" clip-rule="evenodd" d="M9.91683 4.95833H10.5002C11.1418 4.95833 11.6668 5.48333 11.6668 6.125V11.9583C11.6668 12.6 11.1418 13.125 10.5002 13.125H3.50016C2.8585 13.125 2.3335 12.6 2.3335 11.9583V6.125C2.3335 5.48333 2.8585 4.95833 3.50016 4.95833H4.0835V3.79167C4.0835 2.18167 5.39016 0.875 7.00016 0.875C8.61016 0.875 9.91683 2.18167 9.91683 3.79167V4.95833ZM7.00016 2.04167C6.03183 2.04167 5.25016 2.82333 5.25016 3.79167V4.95833H8.75016V3.79167C8.75016 2.82333 7.9685 2.04167 7.00016 2.04167ZM3.50016 11.9583V6.125H10.5002V11.9583H3.50016ZM8.16683 9.04167C8.16683 9.68333 7.64183 10.2083 7.00016 10.2083C6.3585 10.2083 5.8335 9.68333 5.8335 9.04167C5.8335 8.4 6.3585 7.875 7.00016 7.875C7.64183 7.875 8.16683 8.4 8.16683 9.04167Z" fill="#8692A6" />
</svg>
    