<svg width="37" height="37" viewBox="0 0 37 37" fill="none" xmlns="http://www.w3.org/2000/svg">
    <path d="M18.5 9.25C17.3566 9.25 16.2388 9.58906 15.2881 10.2243C14.3374 10.8596 13.5964 11.7625 13.1588 12.8189C12.7213 13.8752 12.6068 15.0377 12.8298 16.1591C13.0529 17.2806 13.6035 18.3107 14.412 19.1192C15.2206 19.9277 16.2507 20.4783 17.3721 20.7014C18.4936 20.9245 19.656 20.81 20.7124 20.3724C21.7688 19.9349 22.6717 19.1939 23.3069 18.2431C23.9422 17.2924 24.2813 16.1747 24.2813 15.0312C24.2813 13.498 23.6722 12.0275 22.588 10.9433C21.5038 9.85909 20.0333 9.25 18.5 9.25ZM18.5 18.5C17.8139 18.5 17.1433 18.2966 16.5729 17.9154C16.0024 17.5343 15.5578 16.9925 15.2953 16.3587C15.0328 15.7249 14.9641 15.0274 15.0979 14.3545C15.2317 13.6817 15.5621 13.0636 16.0472 12.5785C16.5323 12.0934 17.1504 11.763 17.8233 11.6292C18.4962 11.4953 19.1936 11.564 19.8274 11.8265C20.4613 12.0891 21.003 12.5337 21.3842 13.1041C21.7653 13.6745 21.9688 14.3452 21.9688 15.0312C21.9678 15.9509 21.6021 16.8327 20.9518 17.483C20.3014 18.1333 19.4197 18.4991 18.5 18.5Z" fill="black" fill-opacity="0.5"/>
    <path d="M18.5 2.3125C15.2984 2.3125 12.1687 3.26188 9.50671 5.04059C6.84469 6.81929 4.7699 9.34743 3.54471 12.3053C2.31951 15.2632 1.99895 18.518 2.62355 21.658C3.24814 24.7981 4.78985 27.6824 7.05372 29.9463C9.31758 32.2102 12.2019 33.7519 15.342 34.3765C18.4821 35.0011 21.7368 34.6805 24.6947 33.4553C27.6526 32.2301 30.1807 30.1553 31.9594 27.4933C33.7381 24.8313 34.6875 21.7016 34.6875 18.5C34.6826 14.2083 32.9756 10.0938 29.9409 7.05912C26.9062 4.02443 22.7917 2.3174 18.5 2.3125ZM11.5625 30.4984V28.9062C11.5634 27.9866 11.9292 27.1048 12.5795 26.4545C13.2298 25.8042 14.1116 25.4384 15.0313 25.4375H21.9688C22.8884 25.4384 23.7702 25.8042 24.4205 26.4545C25.0708 27.1048 25.4366 27.9866 25.4375 28.9062V30.4984C23.3322 31.7277 20.938 32.3756 18.5 32.3756C16.062 32.3756 13.6678 31.7277 11.5625 30.4984ZM27.7408 28.8207C27.7177 27.3041 27.0998 25.8572 26.0202 24.7918C24.9405 23.7265 23.4855 23.1279 21.9688 23.125H15.0313C13.5145 23.1279 12.0595 23.7265 10.9799 24.7918C9.90021 25.8572 9.2823 27.3041 9.25926 28.8207C7.16247 26.9484 5.68382 24.4834 5.0191 21.7521C4.35437 19.0208 4.53493 16.1521 5.53687 13.5256C6.53881 10.8992 8.31486 8.63912 10.6298 7.04453C12.9448 5.44994 15.6896 4.59612 18.5006 4.59612C21.3116 4.59612 24.0563 5.44994 26.3713 7.04453C28.6863 8.63912 30.4624 10.8992 31.4643 13.5256C32.4662 16.1521 32.6468 19.0208 31.9821 21.7521C31.3174 24.4834 29.8387 26.9484 27.7419 28.8207H27.7408Z" fill="black" fill-opacity="0.5"/>
    </svg>
    