<svg width="52" height="52" viewBox="0 0 52 52" fill="none" xmlns="http://www.w3.org/2000/svg">
<path d="M26 0L50.7275 17.9656L41.2824 47.0344H10.7176L1.27253 17.9656L26 0Z" fill="#32C71A"/>
<path fill-rule="evenodd" clip-rule="evenodd" d="M19.7204 28.8871C20.5018 28.1057 21.5616 27.6667 22.6667 27.6667H29.3333C30.4384 27.6667 31.4982 28.1057 32.2796 28.8871C33.061 29.6685 33.5 30.7283 33.5 31.8334V33.5C33.5 33.9603 33.1269 34.3334 32.6667 34.3334C32.2064 34.3334 31.8333 33.9603 31.8333 33.5V31.8334C31.8333 31.1703 31.5699 30.5344 31.1011 30.0656C30.6323 29.5967 29.9964 29.3334 29.3333 29.3334H22.6667C22.0036 29.3334 21.3677 29.5967 20.8989 30.0656C20.4301 30.5344 20.1667 31.1703 20.1667 31.8334V33.5C20.1667 33.9603 19.7936 34.3334 19.3333 34.3334C18.8731 34.3334 18.5 33.9603 18.5 33.5V31.8334C18.5 30.7283 18.939 29.6685 19.7204 28.8871Z" fill="white"/>
<path fill-rule="evenodd" clip-rule="evenodd" d="M26 19.3334C24.6193 19.3334 23.5 20.4526 23.5 21.8334C23.5 23.2141 24.6193 24.3334 26 24.3334C27.3808 24.3334 28.5 23.2141 28.5 21.8334C28.5 20.4526 27.3808 19.3334 26 19.3334ZM21.8334 21.8334C21.8334 19.5322 23.6989 17.6667 26 17.6667C28.3012 17.6667 30.1667 19.5322 30.1667 21.8334C30.1667 24.1345 28.3012 26 26 26C23.6989 26 21.8334 24.1345 21.8334 21.8334Z" fill="white"/>
</svg>
